<svg version="1.1" id="Capa_1" xmlns="http://www.w3.org/2000/svg" x="0" y="0" viewBox="0 0 54.012 54.012" xml:space="preserve"><path fill="#e84545" d="M28.009 44.947v-21h-2v21l-6-6-2 1 9 9 9-9-2-1-6 6zm22.798-23.42c-1.745-1.802-3.977-2.917-6.228-3.135-.86-3.379-2.674-5.972-5.16-7.35-2.358-1.308-5.148-1.492-8.105-.545-3.965-4.914-9.066-6.599-14.09-4.622-5.199 2.046-8.737 7.648-8.321 13.109-4.375 1.438-9.14 6.877-8.894 11.963.261 5.392 4.021 9.983 10 10h4v-2h-4c-4.741 0-7.785-3.554-8-8-.212-4.378 4.397-9.387 8.163-10.221l.811-.256s-.038-1.223-.057-1.424c-.465-4.676 2.558-9.53 7.031-11.291 4.313-1.698 8.765-.044 12.207 4.54l.452.602.703-.265c2.65-1 5.117-.939 7.13.178 2.179 1.209 3.679 3.545 4.339 6.757l.165.806h.819c1.979 0 4.019.934 5.597 2.563 1.69 1.745 2.702 3.675 2.641 6.011-.127 4.792-3.733 10-9 10h-3v2h3c6.172-.285 10.852-6.412 11-12 .076-2.886-1.131-5.281-3.203-7.42z" id="download"/></svg>